<?xml version="1.0" encoding="UTF-8"?>
<svg width="1047px" height="301px" viewBox="0 0 1047 301" version="1.1" xmlns="http://www.w3.org/2000/svg" xmlns:xlink="http://www.w3.org/1999/xlink">
    <!-- Generator: Sketch 50.2 (55047) - http://www.bohemiancoding.com/sketch -->
    <title>LogMein Logo</title>
    <desc>Created with Sketch.</desc>
    <defs>
        <polygon id="path-1" points="0.06 0.313 112.544849 0.313 112.544849 180.594 0.06 180.594"></polygon>
        <polygon id="path-3" points="607.058232 0.488 1046.42 0.488 1046.42 300.94 607.058232 300.94"></polygon>
    </defs>
    <style> 
        path#Fill-1,
        path#Fill-4,
        path#Fill-5,
        path#Fill-6,
        path#Fill-7,
        path#Fill-9 {
            fill: #54698D !important;
        }
    </style>
    <g id="Page-1" stroke="none" stroke-width="1" fill="none" fill-rule="evenodd">
        <g id="logmein">
            <g id="Group">
                <g id="Group-3" transform="translate(0.000000, 58.000000)">
                    <mask id="mask-2" fill="white">
                        <use xlink:href="#path-1"></use>
                    </mask>
                    <g id="Clip-2"></g>
                    <path d="M7.084,0.313 L28.605,0.313 C30.464,0.313 32.278,0.361 34.055,0.446 C35.823,0.532 37.131,1.16 37.977,2.339 C38.82,3.528 39.243,5.087 39.243,7.027 C39.243,8.967 39.243,11.04 39.243,13.228 L39.243,127.932 C39.243,129.28 39.201,130.586 39.114,131.846 C39.028,133.119 39.152,134.338 39.493,135.518 L39.493,138.057 C39.493,139.235 39.533,140.381 39.623,141.472 C39.704,142.576 39.913,143.547 40.254,144.381 C41.435,146.578 43.802,147.675 47.346,147.675 C50.887,147.675 54.349,147.675 57.726,147.675 L91.885,147.675 C93.235,147.675 94.924,147.635 96.948,147.547 C98.974,147.46 100.914,147.46 102.773,147.547 C104.626,147.635 106.352,147.844 107.961,148.188 C109.569,148.518 110.623,149.036 111.126,149.696 C111.974,150.713 112.392,151.98 112.392,153.502 C112.392,155.018 112.392,156.62 112.392,158.311 L112.392,169.951 C112.392,171.311 112.43,172.577 112.521,173.756 C112.602,174.936 112.477,175.952 112.141,176.793 C111.465,178.141 110.623,179.077 109.606,179.575 C108.76,180.249 107.495,180.594 105.812,180.594 C104.118,180.594 102.52,180.594 100.999,180.594 L11.136,180.594 C8.773,180.594 6.704,180.465 4.935,180.215 C3.163,179.959 1.854,179.158 1.009,177.811 C0.332,176.793 0,175.487 0,173.885 C0,172.274 0,170.719 0,169.19 L0,11.201 C0,9.686 0.039,8.169 0.124,6.647 C0.208,5.126 0.503,3.945 1.009,3.099 C1.682,1.92 3.033,1.074 5.06,0.571 C5.402,0.404 5.734,0.361 6.076,0.446 C6.409,0.532 6.746,0.485 7.084,0.313" id="Fill-1" fill="#1A1919" mask="url(#mask-2)"></path>
                </g>
                <path d="M213.669,177.311 C213.839,176.476 213.925,175.25 213.925,173.641 C213.925,172.044 213.839,170.817 213.669,169.969 L213.669,167.948 C213.33,167.113 213.164,166.176 213.164,165.173 C213.164,164.156 213.078,163.227 212.913,162.385 C212.913,161.711 212.822,161.206 212.66,160.862 C212.318,159.508 212.022,158.121 211.776,156.68 C211.518,155.244 211.138,153.858 210.635,152.504 C208.77,148.115 206.583,144.36 204.049,141.239 C201.514,138.115 198.138,135.629 193.926,133.766 C192.908,133.432 191.901,133.138 190.882,132.88 C189.875,132.629 188.772,132.338 187.592,131.996 C186.241,131.659 184.806,131.53 183.289,131.616 C181.771,131.702 180.251,131.738 178.729,131.738 C178.224,132.082 177.629,132.21 176.959,132.119 C176.286,132.039 175.694,132.082 175.186,132.247 C174.002,132.586 172.862,132.88 171.767,133.138 C170.669,133.385 169.7,133.766 168.857,134.275 C164.635,136.133 161.216,138.791 158.601,142.246 C155.982,145.71 153.918,149.718 152.395,154.275 C151.892,155.965 151.511,157.743 151.261,159.596 C151.008,161.448 150.713,163.307 150.369,165.173 C150.205,166.016 150.124,166.85 150.124,167.699 C150.124,168.548 150.124,169.383 150.124,170.225 C149.782,171.41 149.652,173.189 149.743,175.546 C149.824,177.918 150.032,179.682 150.369,180.862 L150.369,183.145 C150.713,184.491 150.96,185.798 151.13,187.071 C151.303,188.337 151.55,189.638 151.892,190.985 C153.574,196.057 155.392,200.145 157.336,203.264 C159.271,206.397 162.357,209.219 166.576,211.751 C167.754,212.594 169.066,213.274 170.503,213.772 C171.934,214.29 173.412,214.708 174.935,215.037 C175.605,215.207 176.2,215.26 176.703,215.172 C177.212,215.085 177.801,215.133 178.476,215.295 C179.148,215.469 179.871,215.59 180.63,215.678 C181.391,215.766 182.105,215.725 182.78,215.55 L184.806,215.55 C186.157,215.207 187.508,214.964 188.858,214.789 C190.208,214.62 191.473,214.29 192.657,213.772 C197.045,212.094 200.588,209.819 203.292,206.948 C205.99,204.072 208.267,200.53 210.126,196.307 C210.796,194.622 211.305,192.932 211.641,191.247 C211.985,189.564 212.405,187.785 212.913,185.932 C213.078,185.252 213.164,184.619 213.164,184.026 C213.164,183.441 213.25,182.801 213.421,182.127 C213.421,181.285 213.421,180.483 213.421,179.722 C213.421,178.969 213.5,178.166 213.669,177.311 Z M249.121,168.204 C249.455,169.221 249.625,170.656 249.625,172.516 C249.625,174.367 249.455,175.803 249.121,176.813 L249.121,179.338 C248.778,180.699 248.649,182.046 248.741,183.393 C248.822,184.754 248.694,186.101 248.36,187.442 C248.018,188.634 247.766,189.725 247.599,190.742 C247.429,191.752 247.257,192.851 247.095,194.03 C246.414,195.888 245.826,197.787 245.317,199.728 C244.812,201.668 244.139,203.487 243.292,205.17 C239.748,213.274 235.104,219.854 229.369,224.92 C223.63,229.979 216.712,234.201 208.608,237.575 C206.583,238.426 204.51,239.052 202.403,239.483 C200.292,239.901 198.138,240.364 195.95,240.869 C195.1,241.199 194.174,241.367 193.165,241.367 C192.147,241.367 191.22,241.457 190.378,241.631 C189.875,241.631 189.322,241.664 188.733,241.752 C188.139,241.84 187.592,241.887 187.088,241.887 C186.241,242.049 184.89,242.17 183.038,242.264 C181.172,242.345 179.746,242.217 178.729,241.887 L176.2,241.887 C175.353,241.712 174.468,241.664 173.541,241.752 C172.614,241.84 171.725,241.712 170.883,241.367 C170.208,241.199 169.569,241.125 168.98,241.125 C168.391,241.125 167.673,241.038 166.831,240.869 C165.139,240.364 163.451,239.934 161.768,239.604 C160.08,239.26 158.473,238.754 156.955,238.08 C154.932,237.414 153.033,236.735 151.261,236.054 C149.485,235.387 147.668,234.545 145.816,233.528 C139.905,229.979 134.84,225.85 130.627,221.113 C126.406,216.399 122.857,210.74 119.991,204.16 C119.144,202.638 118.513,201.034 118.094,199.351 C117.665,197.666 117.206,195.888 116.695,194.03 C116.357,193.188 116.192,192.426 116.192,191.752 C116.192,191.072 116.02,190.317 115.686,189.469 C115.345,188.129 115.178,186.728 115.178,185.293 C115.178,183.865 115.014,182.471 114.67,181.116 C114.505,180.268 114.422,179.514 114.422,178.833 C114.422,178.166 114.422,177.412 114.422,176.564 C114.081,175.546 113.952,174.118 114.042,172.252 C114.122,170.401 114.333,168.965 114.67,167.948 L114.67,166.176 C114.842,165.328 114.883,164.446 114.803,163.516 C114.712,162.594 114.842,161.711 115.178,160.862 C115.345,160.014 115.431,159.213 115.431,158.457 C115.431,157.697 115.601,156.889 115.939,156.047 C116.61,153.858 117.206,151.705 117.714,149.59 C118.218,147.483 118.893,145.414 119.739,143.389 C122.771,136.47 126.406,130.693 130.627,126.043 C134.84,121.401 139.995,117.142 146.072,113.262 C147.755,112.415 149.524,111.654 151.388,110.979 C153.243,110.309 155.097,109.548 156.955,108.7 C159.147,107.86 161.426,107.271 163.792,106.927 C166.157,106.594 168.6,106.086 171.136,105.412 C172.481,105.245 173.749,105.159 174.935,105.159 C176.114,105.159 177.292,105.073 178.476,104.903 C188.267,104.741 196.751,105.749 203.92,107.946 C211.096,110.136 217.472,113.176 223.04,117.056 C224.894,118.41 226.792,119.885 228.737,121.486 C230.671,123.094 232.317,124.824 233.672,126.679 C235.023,128.367 236.244,130.056 237.348,131.738 C238.442,133.432 239.581,135.201 240.762,137.06 C241.941,138.919 242.873,140.898 243.547,143.009 C244.225,145.119 244.98,147.355 245.826,149.718 C246.334,151.072 246.753,152.504 247.095,154.019 C247.429,155.541 247.766,157.063 248.104,158.579 C248.275,159.252 248.36,159.94 248.36,160.606 C248.36,161.28 248.441,161.967 248.612,162.634 C248.949,163.476 249.03,164.405 248.864,165.415 C248.694,166.433 248.778,167.356 249.121,168.204 Z" id="Fill-4" fill="#1A1919"></path>
                <path d="M352.29,187.953 C352.965,186.432 353.554,184.491 354.063,182.127 C354.571,179.77 354.904,177.278 355.077,174.656 C355.242,172.044 355.284,169.471 355.205,166.938 C355.114,164.405 354.824,162.129 354.314,160.102 C353.977,159.428 353.848,158.882 353.934,158.457 C354.019,158.04 353.977,157.481 353.81,156.807 C353.469,155.628 353.135,154.447 352.798,153.26 C352.461,152.08 352.037,150.986 351.529,149.969 C349.165,144.063 345.794,139.508 341.405,136.299 C337.017,133.094 330.597,131.491 322.163,131.491 C321.82,131.829 321.358,131.957 320.768,131.866 C320.174,131.787 319.631,131.829 319.123,131.996 C317.939,132.338 316.846,132.629 315.827,132.88 C314.821,133.138 313.803,133.432 312.794,133.766 C308.401,135.629 305.025,138.415 302.667,142.125 C300.298,145.838 298.358,149.969 296.841,154.531 C296.504,155.379 296.332,156.047 296.332,156.558 C296.332,157.063 296.247,157.743 296.085,158.579 C295.576,160.446 295.239,163.147 295.068,166.682 C294.895,170.225 295.068,173.101 295.576,175.297 L295.576,177.83 C295.914,179.176 296.167,180.483 296.332,181.743 C296.504,183.016 296.757,184.322 297.093,185.67 C298.616,190.069 300.47,193.901 302.667,197.189 C304.858,200.488 307.898,203.143 311.782,205.17 C313.465,206.019 315.827,206.862 318.872,207.696 C320.05,207.696 320.978,207.79 321.657,207.951 C321.99,207.951 322.494,207.999 323.174,208.072 C323.844,208.16 324.353,208.127 324.692,207.951 L327.226,207.951 C328.743,207.622 330.18,207.365 331.53,207.191 C332.878,207.036 334.229,206.605 335.58,205.932 C339.798,204.247 343.217,201.877 345.832,198.846 C348.447,195.801 350.601,192.177 352.29,187.953 Z M386.981,109.714 C388.159,110.561 388.788,111.954 388.878,113.888 C388.96,115.834 389.006,117.816 389.006,119.843 L389.006,227.951 C389.006,229.311 388.96,230.617 388.878,231.885 C388.788,233.144 388.75,234.457 388.75,235.811 C388.579,237.158 388.454,238.378 388.37,239.483 C388.284,240.574 388.159,241.792 387.989,243.153 C387.314,245.51 386.762,247.746 386.344,249.856 C385.925,251.963 385.289,253.944 384.446,255.811 C381.575,262.217 377.905,267.537 373.429,271.754 C368.959,275.977 363.515,279.44 357.101,282.141 C355.242,282.981 353.388,283.662 351.529,284.168 C349.675,284.672 347.733,285.172 345.708,285.69 C343.85,286.188 341.989,286.526 340.135,286.694 C338.281,286.869 336.427,287.117 334.566,287.461 C333.893,287.461 333.212,287.494 332.542,287.582 C331.867,287.67 331.105,287.717 330.266,287.717 C329.588,287.879 328.829,287.92 327.982,287.838 C327.135,287.75 326.298,287.791 325.451,287.959 C324.605,288.135 323.513,288.217 322.163,288.217 C320.811,288.217 319.714,288.135 318.872,287.959 C318.025,287.959 317.264,287.959 316.588,287.959 C315.913,287.959 315.24,287.879 314.563,287.717 C313.212,287.373 311.82,287.197 310.388,287.197 C308.952,287.197 307.64,287.03 306.461,286.694 C306.124,286.526 305.705,286.444 305.196,286.444 C304.691,286.444 304.268,286.358 303.932,286.188 C302.243,285.852 300.592,285.467 298.996,285.051 C297.388,284.625 295.829,284.08 294.308,283.406 C287.893,280.705 282.153,277.283 277.095,273.155 C272.029,269.02 268.316,263.483 265.954,256.571 C265.616,256.067 265.445,255.553 265.445,255.049 C265.445,254.543 265.359,254.112 265.193,253.783 C264.684,251.586 264.893,249.944 265.826,248.845 C266.752,247.746 268.061,247.033 269.753,246.69 C271.435,246.354 273.338,246.225 275.449,246.319 C277.556,246.393 279.538,246.44 281.397,246.44 L290.009,246.44 C290.846,246.44 291.563,246.481 292.158,246.569 C292.747,246.649 293.461,246.69 294.308,246.69 C297.009,247.362 298.701,248.252 299.375,249.35 C300.045,250.442 301.06,251.924 302.41,253.783 C302.918,254.455 303.679,255.305 304.691,256.315 C304.858,256.652 305.025,256.901 305.196,257.07 C305.368,257.244 305.533,257.494 305.705,257.836 C307.05,258.84 308.487,259.777 310.008,260.619 C311.53,261.455 313.212,262.217 315.071,262.897 C316.251,263.238 317.435,263.442 318.615,263.527 C319.792,263.617 321.058,263.826 322.413,264.168 L325.2,264.168 C326.379,264.5 327.896,264.539 329.76,264.289 C331.614,264.033 333.051,263.738 334.058,263.406 C334.905,263.065 335.619,262.897 336.213,262.897 C336.802,262.897 337.435,262.734 338.109,262.391 C341.658,260.867 344.606,258.84 346.974,256.315 C349.336,253.783 351.281,250.825 352.798,247.451 C353.135,246.44 353.388,245.424 353.554,244.412 C353.727,243.396 353.977,242.305 354.314,241.125 C354.652,239.604 354.861,237.959 354.952,236.19 C355.033,234.41 355.077,232.606 355.077,230.738 C355.077,230.067 355.114,229.392 355.205,228.719 C355.284,228.038 355.242,227.451 355.077,226.947 C354.733,226.098 354.61,225.337 354.696,224.664 C354.78,223.99 354.652,223.317 354.314,222.637 C354.143,222.306 353.934,222.05 353.688,221.875 C353.43,221.713 353.135,221.457 352.798,221.113 C351.281,220.951 350.054,221.289 349.125,222.137 C348.199,222.98 347.31,223.74 346.468,224.414 C344.946,225.593 343.43,226.692 341.913,227.709 C340.393,228.719 338.7,229.649 336.845,230.496 C334.99,231.338 333.131,232.006 331.278,232.518 C329.417,233.023 327.478,233.528 325.451,234.033 C324.439,234.201 323.464,234.322 322.543,234.41 C321.61,234.498 320.726,234.633 319.879,234.793 C319.034,234.963 317.686,235.051 315.827,235.051 C313.973,235.051 312.623,234.963 311.782,234.793 L309.756,234.793 C309.248,234.633 308.696,234.545 308.106,234.545 C307.517,234.545 306.88,234.457 306.214,234.289 C303.846,233.783 301.563,233.319 299.375,232.888 C297.179,232.471 295.153,231.844 293.299,230.996 C286.038,228.126 280.171,224.125 275.701,218.965 C271.227,213.819 267.471,207.622 264.437,200.354 C263.592,198.502 263,196.563 262.658,194.534 C262.32,192.507 261.811,190.487 261.141,188.459 C261.141,187.61 261.056,186.937 260.89,186.432 C260.547,185.084 260.385,183.61 260.385,181.998 C260.385,180.403 260.213,178.921 259.877,177.574 C259.705,176.733 259.625,175.924 259.625,175.162 C259.625,174.401 259.625,173.606 259.625,172.758 C259.454,171.922 259.368,170.864 259.368,169.592 C259.368,168.325 259.454,167.281 259.625,166.433 L259.625,163.893 C259.787,163.227 259.835,162.553 259.749,161.865 C259.663,161.206 259.787,160.526 260.127,159.845 C260.466,158.162 260.718,156.51 260.89,154.914 C261.056,153.308 261.308,151.663 261.649,149.969 C262.658,146.597 263.714,143.389 264.817,140.35 C265.912,137.312 267.3,134.444 268.992,131.738 C269.834,130.056 270.804,128.497 271.901,127.061 C272.996,125.624 274.136,124.146 275.321,122.629 C275.831,121.783 276.543,120.941 277.474,120.093 C278.396,119.252 279.282,118.492 280.133,117.816 L281.65,116.295 C282.496,115.625 283.332,114.993 284.18,114.399 C285.025,113.808 285.867,113.262 286.713,112.752 C288.906,111.408 291.188,110.219 293.552,109.211 C295.914,108.192 298.53,107.271 301.401,106.424 C302.751,105.92 304.141,105.625 305.575,105.539 C307.012,105.454 308.401,105.245 309.756,104.903 C310.427,104.741 311.358,104.741 312.539,104.903 C313.717,105.073 314.477,104.987 314.821,104.651 C320.223,104.484 325.072,104.987 329.38,106.168 C333.679,107.357 337.52,109.039 340.896,111.236 C341.405,111.573 341.913,111.954 342.419,112.371 C342.922,112.796 343.511,113.262 344.186,113.764 C345.204,114.612 346.127,115.458 346.974,116.295 C347.819,117.142 348.827,117.901 350.011,118.579 C350.348,118.749 350.815,118.92 351.404,119.082 C351.995,119.252 352.461,119.166 352.798,118.829 C353.64,118.492 354.143,117.901 354.314,117.056 C354.485,116.214 354.733,115.372 355.077,114.527 C355.414,113.68 355.713,112.796 355.96,111.863 C356.217,110.942 356.678,110.136 357.356,109.464 C358.365,108.792 359.593,108.41 361.028,108.322 C362.454,108.24 363.939,108.192 365.46,108.192 L378.371,108.192 C380.224,108.192 381.875,108.24 383.31,108.322 C384.736,108.41 385.964,108.872 386.981,109.714 Z" id="Fill-5" fill="#1A1919"></path>
                <path d="M410.371,58.313 L443.537,58.313 C446.232,58.313 448.98,58.313 451.767,58.313 C454.549,58.313 456.703,58.913 458.22,60.091 C459.398,60.937 460.246,62.156 460.755,63.762 C461.258,65.369 461.761,66.924 462.272,68.442 C463.284,71.147 464.254,73.89 465.185,76.672 C466.109,79.459 467.082,82.287 468.097,85.154 C471.976,95.792 475.647,106.594 479.109,117.56 C482.572,128.533 486.326,139.424 490.378,150.226 C491.729,153.602 492.908,157.063 493.922,160.606 C494.932,164.156 496.11,167.612 497.464,170.993 C497.801,171.834 498.138,172.684 498.481,173.52 C498.811,174.367 499.404,175.041 500.249,175.546 C500.586,175.715 500.923,175.89 501.268,176.051 C501.601,176.22 501.936,176.145 502.273,175.803 C503.625,175.459 504.557,174.455 505.059,172.758 C505.564,171.074 506.076,169.551 506.581,168.204 C507.935,164.324 509.161,160.485 510.252,156.68 C511.347,152.883 512.572,149.047 513.923,145.158 C517.302,134.869 520.676,124.526 524.054,114.146 C527.429,103.761 530.803,93.342 534.178,82.877 C535.027,80.176 535.861,77.519 536.71,74.898 C537.559,72.283 538.4,69.631 539.25,66.924 C539.755,65.58 540.258,64.229 540.762,62.874 C541.274,61.528 542.193,60.428 543.547,59.583 C544.564,58.741 545.867,58.313 547.475,58.313 C549.07,58.313 550.718,58.313 552.411,58.313 L586.343,58.313 C587.855,58.313 589.414,58.313 591.021,58.313 C592.627,58.313 593.844,58.655 594.692,59.33 C596.544,60.339 597.48,62.242 597.48,65.027 C597.48,67.815 597.48,70.638 597.48,73.509 L597.48,227.709 C597.48,229.561 597.44,231.379 597.352,233.144 C597.268,234.915 596.72,236.229 595.709,237.077 C594.692,237.92 593.426,238.378 591.903,238.465 C590.394,238.547 588.7,238.594 586.845,238.594 L567.853,238.594 C566.503,238.249 565.365,238.007 564.441,237.832 C563.509,237.664 562.711,237.077 562.033,236.054 C561.356,235.219 561.019,234.121 561.019,232.767 C561.019,231.412 561.019,229.979 561.019,228.469 L561.019,150.478 C560.845,148.115 560.771,145.881 560.771,143.768 C560.771,141.659 560.771,139.508 560.771,137.312 C560.771,135.962 560.808,134.572 560.892,133.138 C560.979,131.702 560.845,130.312 560.514,128.959 C560.171,127.777 560.01,126.508 560.01,125.157 C560.01,123.808 559.504,122.967 558.487,122.629 C557.982,122.458 557.604,122.544 557.346,122.881 C557.1,123.217 556.881,123.475 556.716,123.637 C556.042,124.316 555.49,125.12 555.072,126.043 C554.648,126.974 554.264,127.859 553.934,128.706 C552.917,131.235 551.946,133.855 551.021,136.551 C550.091,139.253 549.121,141.956 548.101,144.655 C547.771,145.666 547.475,146.678 547.219,147.692 C546.969,148.704 546.592,149.718 546.077,150.73 C545.231,152.928 544.479,155.123 543.803,157.313 C543.13,159.508 542.368,161.711 541.519,163.893 C541.18,164.405 541.018,164.95 541.018,165.537 C541.018,166.143 540.846,166.682 540.516,167.194 C539.839,168.709 539.287,170.313 538.865,171.996 C538.441,173.688 537.814,175.385 536.967,177.069 C536.293,178.59 535.74,180.194 535.323,181.877 C534.892,183.562 534.352,185.252 533.676,186.937 C531.652,191.833 529.881,196.77 528.358,201.756 C526.836,206.726 525.144,211.67 523.293,216.561 C522.956,217.066 522.787,217.578 522.787,218.082 C522.787,218.588 522.615,219.094 522.282,219.605 C521.434,221.457 520.76,223.363 520.258,225.297 C519.756,227.237 519.069,229.143 518.231,230.996 C517.728,232.181 517.261,233.272 516.833,234.289 C516.416,235.293 515.775,236.141 514.94,236.815 C514.099,237.496 513.25,237.873 512.4,237.959 C511.555,238.041 510.549,238.249 509.37,238.594 L503.54,238.594 C502.361,238.594 500.967,238.633 499.367,238.721 C497.757,238.809 496.154,238.842 494.551,238.842 C492.945,238.842 491.47,238.754 490.122,238.594 C488.768,238.426 487.759,238.08 487.084,237.575 C485.731,236.735 484.804,235.764 484.303,234.666 C483.791,233.575 483.198,232.262 482.528,230.738 C481.683,228.719 480.961,226.651 480.372,224.543 C479.783,222.427 479.065,220.365 478.224,218.339 L477.462,216.055 C476.617,214.034 475.856,211.879 475.183,209.602 C474.506,207.319 473.747,205.17 472.906,203.143 C472.737,202.638 472.609,202.173 472.528,201.756 C472.441,201.337 472.313,200.865 472.148,200.354 C471.303,198.846 470.626,197.235 470.121,195.545 C469.619,193.862 469.02,192.177 468.346,190.487 C468.184,190.149 468.049,189.725 467.969,189.221 C467.883,188.715 467.753,188.291 467.591,187.953 C466.91,186.263 466.365,184.578 465.941,182.888 C465.518,181.204 464.887,179.514 464.044,177.83 C462.694,174.455 461.424,170.905 460.246,167.194 C459.06,163.476 457.796,159.845 456.445,156.303 C454.929,152.08 453.494,147.783 452.143,143.389 C450.787,139.005 449.189,134.783 447.336,130.731 C446.489,128.367 445.562,126.423 444.55,124.906 C444.206,124.568 443.875,124.273 443.537,124.018 C443.194,123.77 442.775,123.808 442.266,124.146 C441.421,124.654 441.002,125.501 441.002,126.679 C441.002,127.859 440.83,129.043 440.497,130.223 C440.156,131.407 440.031,132.629 440.118,133.894 C440.204,135.161 440.242,136.47 440.242,137.816 C440.242,139.679 440.242,141.534 440.242,143.389 C440.242,145.249 440.156,147.106 439.995,148.962 L439.995,228.719 C439.995,230.067 439.995,231.412 439.995,232.767 C439.995,234.121 439.651,235.219 438.977,236.054 C438.301,237.246 437.036,238.007 435.182,238.336 C433.998,238.681 432.728,238.809 431.383,238.721 C430.027,238.633 428.677,238.594 427.331,238.594 L414.165,238.594 C412.306,238.594 410.618,238.547 409.102,238.465 C407.583,238.378 406.319,237.92 405.302,237.077 C404.293,236.229 403.693,234.915 403.532,233.144 C403.362,231.379 403.276,229.561 403.276,227.709 L403.276,75.787 C403.276,74.774 403.276,73.548 403.276,72.111 C403.276,70.685 403.276,69.287 403.276,67.937 C403.276,66.586 403.362,65.278 403.532,64.014 C403.693,62.746 403.951,61.776 404.293,61.099 C404.965,59.92 406.319,59.074 408.345,58.571 C408.679,58.404 409.015,58.361 409.352,58.446 C409.69,58.532 410.029,58.485 410.371,58.313" id="Fill-6" fill="#1A1919"></path>
                <mask id="mask-4" fill="white">
                    <use xlink:href="#path-3"></use>
                </mask>
                <g id="Clip-8"></g>
                <path d="M699.134,157.306 C700.316,155.615 700.444,153.554 699.515,151.102 C698.592,148.657 697.871,146.84 697.365,145.661 C694.995,141.106 691.875,137.602 687.996,135.153 C684.109,132.708 678.714,131.396 671.793,131.226 C671.288,131.569 670.688,131.653 670.025,131.483 C669.338,131.316 668.752,131.316 668.246,131.483 C667.398,131.824 666.478,132.033 665.458,132.114 C664.451,132.205 663.518,132.415 662.683,132.747 C655.247,135.116 649.771,139.756 646.221,146.67 C645.877,147.35 645.497,148.239 645.082,149.332 C644.661,150.432 644.358,151.53 644.193,152.623 C644.025,153.729 644.072,154.77 644.321,155.79 C644.577,156.801 645.115,157.65 645.965,158.322 C647.314,159.172 649.168,159.589 651.535,159.589 C653.893,159.589 656.176,159.589 658.375,159.589 L686.477,159.589 C688.845,159.589 691.323,159.549 693.95,159.468 C696.567,159.38 698.288,158.666 699.134,157.306 Z M737.116,172.246 C737.45,173.606 737.45,175.115 737.116,176.799 C736.773,178.496 736.184,179.588 735.349,180.1 C734.5,180.774 733.273,181.231 731.678,181.487 C730.067,181.743 728.289,181.918 726.363,181.992 C724.41,182.08 722.47,182.08 720.53,181.992 C718.59,181.918 716.859,181.871 715.34,181.871 L653.563,181.871 C652.385,181.871 651.242,181.871 650.147,181.871 C649.046,181.871 648.073,182.039 647.227,182.377 C645.877,183.049 645.042,183.724 644.698,184.397 C644.358,184.74 644.025,185.373 643.691,186.297 C643.351,187.233 643.264,188.115 643.433,188.957 C643.769,189.975 643.977,190.944 644.072,191.873 C644.146,192.797 644.358,193.766 644.698,194.783 C646.053,198.832 647.696,202.158 649.636,204.78 C651.576,207.401 654.236,209.723 657.614,211.751 C658.965,212.594 660.352,213.139 661.79,213.395 C663.223,213.645 664.697,214.022 666.22,214.526 C667.569,214.869 669.425,215.125 671.793,215.287 C674.15,215.455 676.178,215.375 677.872,215.037 L680.152,215.037 C681.836,214.694 683.396,214.317 684.83,213.901 C686.266,213.476 687.653,213.018 689.007,212.498 C690.697,211.664 692.59,210.572 694.701,209.211 C696.813,207.871 698.376,206.518 699.39,205.156 C700.234,203.979 701.121,202.846 702.054,201.741 C702.977,200.651 704.114,199.842 705.469,199.336 C707.149,198.488 709.302,198.112 711.925,198.199 C714.541,198.285 716.946,198.333 719.143,198.333 C720.152,198.333 721.203,198.285 722.309,198.199 C723.402,198.112 724.373,198.246 725.219,198.576 L727.751,198.576 C729.435,198.919 730.62,199.336 731.293,199.842 C731.961,200.186 732.345,200.947 732.438,202.125 C732.513,203.305 732.392,204.321 732.059,205.156 C731.213,207.528 730.276,209.636 729.269,211.495 C728.253,213.355 727.074,215.207 725.723,217.066 C722.005,222.629 717.795,227.109 713.066,230.484 C708.339,233.858 702.424,236.735 695.338,239.092 C693.476,239.766 691.62,240.182 689.768,240.352 C687.911,240.528 685.976,240.857 683.947,241.367 C683.274,241.536 682.55,241.578 681.799,241.496 C681.037,241.409 680.314,241.449 679.637,241.617 L676.854,241.617 C676.007,241.961 675.043,242.082 673.941,242.002 C672.848,241.913 671.877,241.792 671.031,241.617 C669.682,241.449 668.503,241.449 667.485,241.617 C666.478,241.792 665.374,241.705 664.191,241.367 C663.35,241.031 662.427,240.857 661.41,240.857 C660.399,240.857 659.47,240.688 658.632,240.352 C656.768,240.014 654.913,239.631 653.058,239.213 C651.195,238.795 649.511,238.168 647.989,237.319 C646.133,236.646 644.402,236.006 642.806,235.42 C641.199,234.828 639.714,234.121 638.373,233.272 C632.965,229.891 628.151,225.963 623.938,221.498 C619.716,217.026 616.253,211.832 613.553,205.918 C612.707,204.066 612.043,202.158 611.531,200.219 C611.026,198.285 610.35,196.299 609.504,194.272 C609.343,193.605 609.255,192.972 609.255,192.379 C609.255,191.785 609.17,191.153 608.999,190.473 C608.325,188.452 607.908,186.256 607.732,183.899 C607.563,181.528 607.393,179.17 607.227,176.799 C607.227,175.963 607.18,175.033 607.106,174.018 C607.012,173.007 607.059,172.084 607.227,171.235 L607.227,168.197 L607.988,162.115 C608.655,159.246 609.255,156.464 609.76,153.76 C610.266,151.064 611.026,148.533 612.043,146.166 C619.298,128.61 631.614,116.209 649.01,108.947 C651.367,107.936 653.771,107.218 656.224,106.796 C658.669,106.377 661.234,105.829 663.945,105.149 C665.29,104.982 666.563,104.897 667.742,104.897 C668.921,104.897 670.186,104.817 671.533,104.645 C680.152,104.479 687.531,105.448 693.695,107.555 C699.857,109.667 705.381,112.41 710.277,115.781 C711.8,116.799 713.313,117.935 714.835,119.205 C716.357,120.469 717.707,121.778 718.887,123.124 C719.392,123.97 720.064,124.644 720.91,125.149 C722.261,127.013 723.527,128.91 724.716,130.846 C725.885,132.789 727.158,134.773 728.512,136.799 C729.347,138.319 730.067,139.881 730.66,141.482 C731.247,143.088 731.886,144.816 732.56,146.67 C733.398,148.866 734.082,151.149 734.587,153.506 C735.093,155.871 735.679,158.235 736.355,160.606 C736.696,161.953 736.824,163.428 736.736,165.026 C736.648,166.635 736.773,168.117 737.116,169.457 L737.116,172.246 Z" id="Fill-7" fill="#1A1919" mask="url(#mask-4)"></path>
                <path d="M993.046,161.469 L993.046,225.014 C993.046,228.227 992.998,231.312 992.922,234.262 C992.827,237.219 991.612,239.118 989.24,239.953 C988.233,240.297 987.054,240.459 985.705,240.459 C984.344,240.459 983.003,240.459 981.656,240.459 L967.979,240.459 C965.951,240.459 964.137,240.338 962.539,240.082 C960.933,239.832 959.707,239.118 958.869,237.926 C958.182,236.922 957.81,235.61 957.727,234 C957.64,232.403 957.592,230.672 957.592,228.821 L957.592,173.371 C957.592,167.127 957.347,161.34 956.842,156.026 C956.33,150.707 954.816,146.193 952.277,142.48 C949.92,139.104 946.457,136.741 941.9,135.386 C941.056,135.052 940.17,134.882 939.24,134.882 C938.308,134.882 937.348,134.716 936.33,134.379 C935.482,134.207 934.429,134.168 933.162,134.251 C931.899,134.34 930.929,134.463 930.252,134.63 C929.577,134.797 928.989,134.882 928.484,134.882 C927.971,134.882 927.467,134.967 926.962,135.138 C923.071,136.147 919.953,137.503 917.596,139.19 C912.192,143.07 908.991,148.728 907.973,156.147 C906.963,163.584 906.45,171.929 906.45,181.211 L906.45,228.308 C906.45,229.83 906.45,231.346 906.45,232.867 C906.45,234.383 906.202,235.656 905.699,236.666 C904.852,238.533 903.5,239.623 901.645,239.953 C899.782,240.297 897.498,240.459 894.809,240.459 L882.151,240.459 C880.286,240.459 878.433,240.385 876.578,240.209 C874.716,240.042 873.365,239.455 872.526,238.432 C871.337,236.922 870.799,234.727 870.883,231.85 C870.957,228.988 871.008,226.28 871.008,223.754 L871.008,120.703 C871.008,118.849 871.044,117.155 871.129,115.638 C871.216,114.121 871.682,112.856 872.526,111.841 C872.859,111.336 873.412,110.955 874.173,110.704 C874.935,110.451 875.732,110.243 876.578,110.071 L877.845,110.071 C878.689,109.904 879.575,109.814 880.497,109.814 C881.427,109.814 882.313,109.814 883.159,109.814 L893.792,109.814 C895.141,109.814 896.455,109.862 897.717,109.942 C898.983,110.032 900.126,110.243 901.133,110.575 C902.313,111.083 903.121,111.841 903.54,112.856 C903.959,113.865 904.339,115.054 904.68,116.4 C904.852,117.079 904.889,117.664 904.804,118.173 C904.72,118.678 904.852,119.181 905.184,119.69 C905.528,120.542 905.82,121.046 906.07,121.207 C906.326,121.379 906.706,121.634 907.212,121.968 C909.064,122.138 910.587,121.507 911.775,120.07 C912.955,118.639 914.217,117.499 915.571,116.652 C920.125,113.276 925.192,110.575 930.757,108.549 C932.276,108.045 933.839,107.707 935.445,107.542 C937.041,107.37 938.776,107.119 940.639,106.781 C941.14,106.609 941.9,106.57 942.909,106.653 C943.929,106.736 944.602,106.694 944.935,106.525 C955.063,106.191 963.51,107.628 970.259,110.832 C977.006,114.037 982.318,118.763 986.209,125.011 C987.388,126.865 988.32,128.852 988.994,130.955 C989.672,133.07 990.346,135.224 991.022,137.412 C991.354,138.767 991.564,140.037 991.648,141.216 C991.733,142.396 991.941,143.578 992.284,144.758 C992.284,145.771 992.372,146.446 992.545,146.78 C992.874,149.148 993.046,151.59 993.046,154.127 C993.046,156.666 993.046,159.105 993.046,161.469 Z M844.643,237.684 C843.97,238.863 842.458,239.792 840.09,240.459 C838.912,240.802 837.645,240.877 836.295,240.715 C834.943,240.546 833.598,240.459 832.243,240.459 L817.303,240.459 C815.44,240.459 813.72,240.385 812.109,240.209 C810.503,240.042 809.203,239.537 808.192,238.687 C807.348,237.846 806.832,236.579 806.67,234.895 C806.502,233.204 806.414,231.433 806.414,229.58 L806.414,78.165 C806.414,75.808 806.378,73.021 806.293,69.815 C806.205,66.61 806.586,64.329 807.435,62.978 C808.098,61.961 809.203,61.124 810.722,60.444 C811.227,60.444 811.692,60.406 812.109,60.315 C812.53,60.234 812.911,60.191 813.252,60.191 L835.028,60.191 C836.884,60.191 838.652,60.234 840.346,60.315 C842.03,60.406 843.296,61.038 844.141,62.216 C844.986,63.398 845.441,64.918 845.539,66.772 C845.613,68.636 845.66,70.662 845.66,72.849 L845.66,224.253 C845.66,226.448 845.7,228.901 845.784,231.608 C845.869,234.303 845.492,236.329 844.643,237.684 Z M896.168,0.488 C813.184,0.488 745.91,67.762 745.91,150.745 C745.91,233.723 813.184,301 896.168,301 C979.152,301 1046.42,233.723 1046.42,150.745 C1046.42,67.762 979.152,0.488 896.168,0.488 Z" id="Fill-9" fill="#1A1919" mask="url(#mask-4)"></path>
            </g>
        </g>
    </g>
</svg>